HIERARCHY
ROOT newVegas:Hips
{
	OFFSET 0.000000 96.479958 0.000000
	CHANNELS 6 Xposition Yposition Zposition Xrotation Yrotation Zrotation
	JOINT newVegas:Pelvis
	{
		OFFSET 0.000000 0.000000 0.000000
		CHANNELS 3 Xrotation Yrotation Zrotation
		JOINT newVegas:LeftUpLeg
		{
			OFFSET 18.735201 -5.666702 -4.541200
			CHANNELS 3 Xrotation Yrotation Zrotation
			JOINT newVegas:LeftLeg
			{
				OFFSET -0.021200 -31.938179 0.493100
				CHANNELS 3 Xrotation Yrotation Zrotation
				JOINT newVegas:LeftFoot
				{
					OFFSET 0.021200 -31.938179 -4.336299
					CHANNELS 3 Xrotation Yrotation Zrotation
					JOINT newVegas:LeftToeBase
					{
						OFFSET 0.943001 -26.722000 15.023500
						CHANNELS 3 Xrotation Yrotation Zrotation
						End Site
						{
							OFFSET 0.000000 30.670183 0.000000
						}
					}
				}
				JOINT newVegas:Left_PantLeg
				{
					OFFSET 0.663870 -9.044666 -1.108900
					CHANNELS 3 Xrotation Yrotation Zrotation
					End Site
					{
						OFFSET 1.415995 20.635357 0.000000
					}
				}
			}
		}
		JOINT newVegas:RightUpLeg
		{
			OFFSET -18.735201 -5.666702 -4.541200
			CHANNELS 3 Xrotation Yrotation Zrotation
			JOINT newVegas:RightLeg
			{
				OFFSET 0.018946 -31.938133 0.493100
				CHANNELS 3 Xrotation Yrotation Zrotation
				JOINT newVegas:RightFoot
				{
					OFFSET -0.018946 -31.938126 -4.336299
					CHANNELS 3 Xrotation Yrotation Zrotation
					JOINT newVegas:RightToeBase
					{
						OFFSET -0.943001 -26.722004 15.023500
						CHANNELS 3 Xrotation Yrotation Zrotation
						End Site
						{
							OFFSET 0.000000 30.670187 0.000000
						}
					}
				}
				JOINT newVegas:Right_PantLeg
				{
					OFFSET -0.661674 -9.044716 -1.108900
					CHANNELS 3 Xrotation Yrotation Zrotation
					End Site
					{
						OFFSET -1.415958 20.635269 0.000000
					}
				}
			}
		}
	}
	JOINT newVegas:Spine
	{
		OFFSET 0.000000 10.199997 -0.299500
		CHANNELS 3 Xrotation Yrotation Zrotation
		JOINT newVegas:Spine1
		{
			OFFSET 0.000000 11.900002 -1.516600
			CHANNELS 3 Xrotation Yrotation Zrotation
			JOINT newVegas:Spine2
			{
				OFFSET 0.000000 13.600006 -2.842500
				CHANNELS 3 Xrotation Yrotation Zrotation
				JOINT newVegas:Neck
				{
					OFFSET 0.000000 9.624100 -2.890100
					CHANNELS 3 Xrotation Yrotation Zrotation
					JOINT newVegas:Head
					{
						OFFSET 0.000000 14.068802 -1.351900
						CHANNELS 3 Xrotation Yrotation Zrotation
						JOINT newVegas:Hair_Back
						{
							OFFSET 0.000000 3.231903 -17.524799
							CHANNELS 3 Xrotation Yrotation Zrotation
							End Site
							{
								OFFSET 0.000000 19.849884 0.000000
							}
						}
						JOINT newVegas:Hair_Front
						{
							OFFSET 0.000000 31.260406 4.573800
							CHANNELS 3 Xrotation Yrotation Zrotation
							JOINT newVegas:Hair_Front1
							{
								OFFSET 0.000000 2.284103 11.993300
								CHANNELS 3 Xrotation Yrotation Zrotation
								JOINT newVegas:Hair_Front2
								{
									OFFSET 0.000000 2.284103 11.993300
									CHANNELS 3 Xrotation Yrotation Zrotation
									End Site
									{
										OFFSET 0.000000 12.208862 0.000000
									}
								}
							}
						}
						JOINT newVegas:Jowel
						{
							OFFSET 0.000000 -7.458206 6.864100
							CHANNELS 3 Xrotation Yrotation Zrotation
							End Site
							{
								OFFSET 0.000000 19.849884 0.000000
							}
						}
					}
				}
				JOINT newVegas:LeftShoulder
				{
					OFFSET 15.263000 10.923401 -0.547700
					CHANNELS 3 Xrotation Yrotation Zrotation
					JOINT newVegas:LeftArm
					{
						OFFSET 25.438599 -2.830597 -13.032500
						CHANNELS 3 Xrotation Yrotation Zrotation
						JOINT newVegas:LeftForeArm
						{
							OFFSET 29.960503 0.000000 0.000000
							CHANNELS 3 Xrotation Yrotation Zrotation
							JOINT newVegas:LeftHand
							{
								OFFSET 27.849251 0.000000 0.000000
								CHANNELS 3 Xrotation Yrotation Zrotation
								JOINT newVegas:LeftHandThumb1
								{
									OFFSET 4.487587 -3.305161 6.305391
									CHANNELS 3 Xrotation Yrotation Zrotation
									JOINT newVegas:LeftHandThumb2
									{
										OFFSET 5.480453 -3.164139 3.164143
										CHANNELS 3 Xrotation Yrotation Zrotation
										JOINT newVegas:LeftHandThumb3
										{
											OFFSET 5.159721 -2.978973 2.978967
											CHANNELS 3 Xrotation Yrotation Zrotation
											End Site
											{
												OFFSET 2.494507 5.926697 1.738678
											}
										}
									}
								}
								JOINT newVegas:LeftHandIndex1
								{
									OFFSET 18.578728 -0.527832 5.208049
									CHANNELS 3 Xrotation Yrotation Zrotation
									JOINT newVegas:LeftHandIndex2
									{
										OFFSET 3.192009 0.000000 0.000000
										CHANNELS 3 Xrotation Yrotation Zrotation
										JOINT newVegas:LeftHandIndex3
										{
											OFFSET 3.835129 0.000000 0.000000
											CHANNELS 3 Xrotation Yrotation Zrotation
											End Site
											{
												OFFSET -0.034599 3.816971 0.371180
											}
										}
									}
								}
								JOINT newVegas:LeftHandMiddle1
								{
									OFFSET 18.476105 0.000000 0.000000
									CHANNELS 3 Xrotation Yrotation Zrotation
									JOINT newVegas:LeftHandMiddle2
									{
										OFFSET 3.324875 0.000000 0.000000
										CHANNELS 3 Xrotation Yrotation Zrotation
										JOINT newVegas:LeftHandMiddle3
										{
											OFFSET 4.596550 0.000000 0.000000
											CHANNELS 3 Xrotation Yrotation Zrotation
											End Site
											{
												OFFSET 0.057701 4.578827 0.399218
											}
										}
									}
								}
								JOINT newVegas:LeftHandRing1
								{
									OFFSET 17.732719 0.121887 -4.201567
									CHANNELS 3 Xrotation Yrotation Zrotation
									JOINT newVegas:LeftHandRing2
									{
										OFFSET 2.733170 0.000000 0.000000
										CHANNELS 3 Xrotation Yrotation Zrotation
										JOINT newVegas:LeftHandRing3
										{
											OFFSET 3.178268 0.000000 0.000000
											CHANNELS 3 Xrotation Yrotation Zrotation
											End Site
											{
												OFFSET 0.119102 3.170624 0.185394
											}
										}
									}
								}
								JOINT newVegas:LeftHandPinky1
								{
									OFFSET 15.989624 -0.606689 -7.535461
									CHANNELS 3 Xrotation Yrotation Zrotation
									JOINT newVegas:LeftHandPinky2
									{
										OFFSET 2.538986 0.000000 0.000000
										CHANNELS 3 Xrotation Yrotation Zrotation
										JOINT newVegas:LeftHandPinky3
										{
											OFFSET 2.593102 0.000000 0.000000
											CHANNELS 3 Xrotation Yrotation Zrotation
											End Site
											{
												OFFSET -0.150902 2.584198 0.152708
											}
										}
									}
								}
							}
							JOINT newVegas:Left_Sleeve
							{
								OFFSET 0.267448 -0.649796 0.577675
								CHANNELS 3 Xrotation Yrotation Zrotation
								End Site
								{
									OFFSET 0.000000 15.991241 0.000000
								}
							}
							JOINT newVegas:Left_CapeC
							{
								OFFSET 15.715958 -8.608795 -6.935905
								CHANNELS 3 Xrotation Yrotation Zrotation
								JOINT newVegas:Left_CapeC1
								{
									OFFSET 0.000000 -8.688499 0.000000
									CHANNELS 3 Xrotation Yrotation Zrotation
									End Site
									{
										OFFSET 0.000000 8.688499 0.000000
									}
								}
							}
						}
						JOINT newVegas:Left_CapeB
						{
							OFFSET 26.118385 -8.608795 -7.079235
							CHANNELS 3 Xrotation Yrotation Zrotation
							JOINT newVegas:Left_CapeB1
							{
								OFFSET 0.000000 -8.688499 0.000000
								CHANNELS 3 Xrotation Yrotation Zrotation
								End Site
								{
									OFFSET 0.000000 8.688499 0.000000
								}
							}
						}
						JOINT newVegas:Left_CapeA
						{
							OFFSET 5.115639 -8.608795 -10.395809
							CHANNELS 3 Xrotation Yrotation Zrotation
							JOINT newVegas:Left_CapeA1
							{
								OFFSET 0.000000 -8.688499 0.000000
								CHANNELS 3 Xrotation Yrotation Zrotation
								End Site
								{
									OFFSET 0.000000 8.688499 0.000000
								}
							}
						}
					}
				}
				JOINT newVegas:RightShoulder
				{
					OFFSET -15.263000 10.923401 -0.547700
					CHANNELS 3 Xrotation Yrotation Zrotation
					JOINT newVegas:RightArm
					{
						OFFSET -25.438599 -2.830597 -13.032500
						CHANNELS 3 Xrotation Yrotation Zrotation
						JOINT newVegas:RightForeArm
						{
							OFFSET -29.960503 0.000000 0.000000
							CHANNELS 3 Xrotation Yrotation Zrotation
							JOINT newVegas:RightHand
							{
								OFFSET -27.849251 0.000000 0.000000
								CHANNELS 3 Xrotation Yrotation Zrotation
								JOINT newVegas:RightHandThumb1
								{
									OFFSET -4.487587 -3.305161 6.305391
									CHANNELS 3 Xrotation Yrotation Zrotation
									JOINT newVegas:RightHandThumb2
									{
										OFFSET -5.480453 -3.164139 3.164143
										CHANNELS 3 Xrotation Yrotation Zrotation
										JOINT newVegas:RightHandThumb3
										{
											OFFSET -5.159721 -2.978973 2.978967
											CHANNELS 3 Xrotation Yrotation Zrotation
											End Site
											{
												OFFSET -2.494507 5.926697 1.738678
											}
										}
									}
								}
								JOINT newVegas:RightHandIndex1
								{
									OFFSET -18.578728 -0.527832 5.208049
									CHANNELS 3 Xrotation Yrotation Zrotation
									JOINT newVegas:RightHandIndex2
									{
										OFFSET -3.192009 0.000000 0.000000
										CHANNELS 3 Xrotation Yrotation Zrotation
										JOINT newVegas:RightHandIndex3
										{
											OFFSET -3.835129 0.000000 0.000000
											CHANNELS 3 Xrotation Yrotation Zrotation
											End Site
											{
												OFFSET 0.034599 3.816971 0.371180
											}
										}
									}
								}
								JOINT newVegas:RightHandMiddle1
								{
									OFFSET -18.476105 0.000000 0.000000
									CHANNELS 3 Xrotation Yrotation Zrotation
									JOINT newVegas:RightHandMiddle2
									{
										OFFSET -3.324875 0.000000 0.000000
										CHANNELS 3 Xrotation Yrotation Zrotation
										JOINT newVegas:RightHandMiddle3
										{
											OFFSET -4.596550 0.000000 0.000000
											CHANNELS 3 Xrotation Yrotation Zrotation
											End Site
											{
												OFFSET -0.057701 4.578827 0.399218
											}
										}
									}
								}
								JOINT newVegas:RightHandRing1
								{
									OFFSET -17.732719 0.121887 -4.201567
									CHANNELS 3 Xrotation Yrotation Zrotation
									JOINT newVegas:RightHandRing2
									{
										OFFSET -2.733170 0.000000 0.000000
										CHANNELS 3 Xrotation Yrotation Zrotation
										JOINT newVegas:RightHandRing3
										{
											OFFSET -3.178268 0.000000 0.000000
											CHANNELS 3 Xrotation Yrotation Zrotation
											End Site
											{
												OFFSET -0.119102 3.170624 0.185394
											}
										}
									}
								}
								JOINT newVegas:RightHandPinky1
								{
									OFFSET -15.989624 -0.606689 -7.535461
									CHANNELS 3 Xrotation Yrotation Zrotation
									JOINT newVegas:RightHandPinky2
									{
										OFFSET -2.538986 0.000000 0.000000
										CHANNELS 3 Xrotation Yrotation Zrotation
										JOINT newVegas:RightHandPinky3
										{
											OFFSET -2.593102 0.000000 0.000000
											CHANNELS 3 Xrotation Yrotation Zrotation
											End Site
											{
												OFFSET 0.150902 2.584198 0.152708
											}
										}
									}
								}
							}
							JOINT newVegas:Right_CapeC
							{
								OFFSET -15.715958 -8.608795 -6.935905
								CHANNELS 3 Xrotation Yrotation Zrotation
								JOINT newVegas:Right_CapeC1
								{
									OFFSET 0.000000 -8.688499 0.000000
									CHANNELS 3 Xrotation Yrotation Zrotation
									End Site
									{
										OFFSET 0.000000 8.688499 0.000000
									}
								}
							}
							JOINT newVegas:Right_Sleeve
							{
								OFFSET -0.267448 -0.649994 0.577675
								CHANNELS 3 Xrotation Yrotation Zrotation
								End Site
								{
									OFFSET 0.000000 15.991302 0.000000
								}
							}
						}
						JOINT newVegas:Right_CapeA
						{
							OFFSET -5.115540 -8.608795 -10.395824
							CHANNELS 3 Xrotation Yrotation Zrotation
							JOINT newVegas:Right_CapeA1
							{
								OFFSET 0.000000 -8.688499 0.000000
								CHANNELS 3 Xrotation Yrotation Zrotation
								End Site
								{
									OFFSET 0.000000 8.688499 0.000000
								}
							}
						}
						JOINT newVegas:Right_CapeB
						{
							OFFSET -26.118187 -8.608795 -7.079266
							CHANNELS 3 Xrotation Yrotation Zrotation
							JOINT newVegas:Right_CapeB1
							{
								OFFSET 0.000000 -8.688499 0.000000
								CHANNELS 3 Xrotation Yrotation Zrotation
								End Site
								{
									OFFSET 0.000000 8.688499 0.000000
								}
							}
						}
					}
				}
				JOINT newVegas:Left_Collar
				{
					OFFSET 18.625099 8.655502 8.828100
					CHANNELS 3 Xrotation Yrotation Zrotation
					JOINT newVegas:Left_Collar1
					{
						OFFSET 14.783401 10.540405 -1.259500
						CHANNELS 3 Xrotation Yrotation Zrotation
						End Site
						{
							OFFSET 0.000000 18.199875 0.000000
						}
					}
				}
				JOINT newVegas:Collar_Back
				{
					OFFSET 0.000000 15.630707 -20.132601
					CHANNELS 3 Xrotation Yrotation Zrotation
					End Site
					{
						OFFSET 0.000000 22.523010 0.000000
					}
				}
				JOINT newVegas:Left_Peck
				{
					OFFSET 17.239599 -5.132599 25.482599
					CHANNELS 3 Xrotation Yrotation Zrotation
					End Site
					{
						OFFSET 0.000000 22.523010 0.000000
					}
				}
				JOINT newVegas:Right_Peck
				{
					OFFSET -17.239599 -5.132202 25.482599
					CHANNELS 3 Xrotation Yrotation Zrotation
					End Site
					{
						OFFSET 0.000000 22.523010 0.000000
					}
				}
				JOINT newVegas:Right_Collar
				{
					OFFSET -18.625099 8.655792 8.828100
					CHANNELS 3 Xrotation Yrotation Zrotation
					JOINT newVegas:Right_Collar1
					{
						OFFSET -14.783401 10.539993 -1.259500
						CHANNELS 3 Xrotation Yrotation Zrotation
						End Site
						{
							OFFSET 0.000000 18.199631 0.000000
						}
					}
				}
			}
		}
		JOINT newVegas:Belly
		{
			OFFSET 0.000000 -6.540398 9.014299
			CHANNELS 3 Xrotation Yrotation Zrotation
			End Site
			{
				OFFSET 0.000000 11.566666 0.000000
			}
		}
	}
	JOINT newVegas:ElvisFacialAnim_Joint
	{
		OFFSET 1.000000 -95.330101 -8.825800
		CHANNELS 3 Xrotation Yrotation Zrotation
		End Site
		{
			OFFSET 0.000000 35.315800 0.000000
		}
	}
}
MOTION
Frames: 4
Frame Time: 0.016667
-3.449080 72.172356 17.853785 15.026268 44.812157 -6.998117 0.000000 0.000001 0.000001 -83.026174 -3.972224 -33.007722 60.658241 -49.240920 4.435544 9.196316 0.127517 -10.974581 -0.000000 0.000003 0.000000 0.000001 0.000002 -0.000001 26.122463 -47.034824 10.054593 39.070974 15.574921 -8.116648 -25.762335 0.490946 -6.360716 -0.000002 -0.000000 0.000001 0.000001 -0.000000 0.000001 8.099647 9.365250 0.198243 2.381652 15.778977 -0.339810 2.404006 15.779127 -0.339340 4.346227 -7.059114 0.089780 4.346219 -7.059140 0.089780 -0.000000 -0.000003 0.000001 4.346283 -7.059161 0.089808 4.346218 -7.059065 0.089771 -0.000001 -0.000001 0.000002 -0.000000 -0.000003 0.000003 3.133502 -2.562305 -3.584631 -38.240750 7.071612 -29.653570 51.130318 1.007871 17.797844 -12.087052 -6.543423 6.823686 0.717873 -6.071433 10.111286 2.373393 19.986119 -2.038327 0.000001 -0.000000 -0.000003 9.749548 -2.596980 0.987085 -0.005774 0.241068 -8.886558 -0.000000 -0.000002 0.000000 9.008209 3.812722 -14.287932 0.043541 0.559792 -9.088827 -0.000003 -0.000001 -0.000001 10.700133 16.687149 -35.234849 0.141865 0.238701 -28.896936 -0.000002 -0.000004 -0.000001 11.696319 25.216725 -38.134070 0.132806 0.212972 -32.263563 0.000000 0.000002 -0.000003 -0.000001 -0.000001 0.000001 -0.000001 -0.000001 0.000001 -0.000001 -0.000001 0.000001 -0.000002 -0.000002 -0.000001 -0.000002 -0.000002 -0.000001 -0.000002 -0.000002 -0.000001 -0.000002 -0.000002 -0.000001 -3.243328 8.889437 -18.987009 -18.337451 -10.441370 2.113097 144.016574 167.285922 -173.359408 -12.660224 -2.965745 -5.790672 9.279837 0.855313 2.186159 1.377816 -17.419904 3.021598 0.000001 -0.000004 -0.000001 8.977443 0.914865 -26.573712 -0.055944 -0.245632 0.029080 -0.000002 -0.000000 0.000000 7.645435 -7.256353 -8.401660 0.102455 -0.524305 3.712657 -0.000001 0.000000 0.000000 6.495372 -19.152600 6.388325 0.205316 -0.177336 17.221776 -0.000002 0.000003 -0.000004 8.267306 -27.952812 40.018075 0.357935 -0.175291 49.203184 0.000000 -0.000000 -0.000001 0.000001 0.000000 0.000001 0.000001 0.000000 -0.000000 0.000001 0.000000 0.000000 -0.000000 0.000000 0.000000 -0.000000 0.000000 0.000000 -0.000000 0.000000 0.000000 -0.000000 -0.000000 0.000000 0.000001 -0.000000 -0.000000 0.000001 -0.000000 -0.000000 0.000001 -0.000000 -0.000000 0.000001 -0.000000 -0.000000 0.000001 -0.000000 -0.000000 0.000001 -0.000000 -0.000000 0.000001 -0.000000 -0.000000 -0.000000 -0.000001 0.000000 0.000000 0.000001 0.000001 
-3.304784 72.429626 17.902521 14.644057 43.407403 -6.696843 -0.000000 -0.000000 0.000000 -82.787084 -4.158642 -32.233367 60.919290 -48.515616 4.365104 8.855327 0.112746 -10.662133 -0.000000 -0.000002 0.000000 0.000001 -0.000000 0.000000 24.612643 -45.956337 8.616045 39.588261 16.059989 -8.179134 -25.481148 0.168311 -6.646793 0.000002 -0.000000 -0.000000 0.000001 0.000000 -0.000001 8.129241 9.271820 0.192695 2.453885 15.715422 -0.410864 2.476208 15.715461 -0.410369 4.331493 -7.028223 0.166186 4.331486 -7.028205 0.166182 0.000001 0.000002 -0.000003 4.331615 -7.028248 0.166203 4.331332 -7.028148 0.166148 -0.000003 -0.000001 0.000001 0.000001 0.000002 -0.000002 3.030143 -2.053839 -3.444218 -34.893626 7.814703 -28.841416 51.215245 1.798529 17.534537 -13.743626 -6.963608 5.081480 0.690162 -6.257989 9.347858 2.373394 19.986112 -2.038325 0.000001 -0.000002 -0.000003 9.889670 -2.215677 0.150827 -0.005908 0.241161 -9.214050 0.000002 0.000001 0.000001 9.055379 4.126230 -14.668280 0.045015 0.562275 -9.437237 0.000001 0.000001 0.000003 10.739783 16.814744 -35.132171 0.137660 0.239644 -28.699318 0.000001 -0.000001 0.000002 11.760302 25.391537 -38.044318 0.132613 0.213295 -32.330366 0.000001 -0.000002 0.000000 0.000000 0.000001 -0.000001 0.000000 0.000001 -0.000001 -0.000000 0.000002 -0.000001 0.000000 -0.000001 0.000001 0.000000 -0.000001 -0.000001 0.000000 -0.000001 0.000001 0.000000 -0.000001 0.000000 -3.234084 9.381071 -18.988030 -20.179965 -10.125714 2.111667 144.235222 166.478758 -172.151612 -12.150577 -4.188274 -6.691111 9.387996 0.822779 2.124793 1.377810 -17.419918 3.021593 0.000003 -0.000001 0.000001 9.067880 0.695023 -25.814405 -0.051504 -0.245685 0.064849 -0.000001 -0.000001 -0.000003 7.626683 -7.125895 -7.923825 0.102853 -0.525811 3.951777 -0.000001 0.000000 0.000000 6.454402 -18.622960 6.787680 0.200247 -0.179030 17.261568 -0.000005 0.000001 -0.000004 7.978924 -28.024621 39.947133 0.355177 -0.175829 48.983306 -0.000000 0.000003 0.000000 0.000001 0.000000 0.000000 0.000001 0.000000 0.000000 0.000001 0.000001 -0.000000 -0.000001 0.000000 -0.000000 -0.000001 0.000000 -0.000000 -0.000001 0.000000 -0.000000 -0.000001 -0.000000 -0.000001 0.000001 -0.000000 -0.000003 0.000001 -0.000000 -0.000003 0.000001 -0.000000 -0.000003 0.000001 -0.000000 -0.000003 0.000001 -0.000000 -0.000003 0.000001 -0.000000 -0.000003 0.000001 -0.000000 -0.000003 0.000002 0.000001 -0.000001 -0.000000 -0.000000 0.000000 
-3.144405 72.706963 17.953293 14.146409 41.842080 -6.309382 -0.000001 0.000000 -0.000000 -82.456086 -4.325093 -31.350374 61.240699 -47.701676 4.278594 8.465399 0.092997 -10.324923 0.000000 0.000000 -0.000000 -0.000000 0.000002 0.000000 23.062952 -44.748524 6.993190 39.944705 15.180447 -8.283292 -25.196701 1.055770 -6.123637 -0.000001 -0.000001 -0.000000 0.000002 -0.000000 -0.000000 8.149609 9.168574 0.172624 2.510247 15.645952 -0.515675 2.532586 15.646049 -0.515184 4.292643 -7.003610 0.285521 4.292649 -7.003610 0.285521 0.000000 0.000000 -0.000001 4.292647 -7.003626 0.285526 4.292598 -7.003606 0.285510 -0.000001 -0.000004 0.000002 0.000000 0.000000 -0.000001 2.904506 -1.393839 -3.364778 -31.432660 8.742965 -28.038410 51.355701 2.474099 17.546584 -14.985701 -7.308027 3.153648 0.630771 -6.463486 8.584045 2.373390 19.986115 -2.038326 0.000001 -0.000000 -0.000003 10.025385 -1.815685 -0.661310 -0.006059 0.241252 -9.522502 -0.000002 0.000000 0.000000 9.103799 4.430286 -15.033820 0.046504 0.564824 -9.784028 0.000003 -0.000002 -0.000000 10.772721 16.882074 -35.025316 0.133030 0.240876 -28.494050 0.000001 0.000001 0.000001 11.843090 25.575879 -38.001137 0.132598 0.213732 -32.423847 0.000000 -0.000003 -0.000003 0.000001 0.000002 -0.000001 0.000001 0.000002 -0.000001 0.000000 0.000002 -0.000001 -0.000000 -0.000001 0.000001 -0.000000 -0.000002 0.000001 -0.000000 -0.000001 0.000001 -0.000001 -0.000002 0.000001 -3.144798 9.710548 -18.951711 -22.316883 -9.294432 2.336561 144.310846 166.066187 -170.952094 -11.502443 -5.129975 -7.348368 9.669571 0.616301 2.214272 1.377766 -17.419892 3.021587 0.000005 -0.000002 -0.000001 9.166957 0.351628 -24.705368 -0.047724 -0.246347 0.536669 -0.000001 0.000001 0.000002 7.623401 -7.047106 -7.050688 0.103806 -0.528107 4.369243 -0.000002 -0.000000 -0.000000 6.475540 -18.077221 7.614141 0.194432 -0.181326 17.489908 -0.000003 0.000001 -0.000000 7.820554 -27.942587 40.349985 0.353071 -0.176004 48.987114 0.000002 -0.000002 -0.000001 -0.000002 0.000001 0.000002 -0.000002 0.000001 0.000002 -0.000002 0.000002 0.000002 -0.000000 0.000001 -0.000000 -0.000000 0.000001 -0.000000 -0.000000 0.000001 -0.000000 -0.000000 0.000001 -0.000001 0.000001 0.000000 0.000000 0.000001 0.000000 0.000000 0.000001 0.000000 0.000000 0.000001 0.000000 0.000000 0.000001 0.000000 0.000000 0.000001 0.000000 0.000000 0.000001 0.000000 0.000000 -0.000000 0.000003 -0.000001 -0.000001 0.000000 -0.000000 
-2.968975 72.997284 17.997709 13.564062 40.190554 -5.870752 -0.000001 0.000001 -0.000000 -82.045072 -4.498591 -30.432287 61.594742 -46.797362 4.192374 8.033752 0.068961 -9.992699 -0.000000 0.000001 0.000000 -0.000001 0.000001 -0.000000 21.588140 -43.517854 5.345714 40.462956 15.265773 -8.337258 -24.899962 1.146757 -6.026837 -0.000004 0.000001 -0.000002 0.000001 0.000000 -0.000000 8.181866 9.032519 0.151504 2.590916 15.519595 -0.627978 2.613253 15.519675 -0.627485 4.194686 -6.974913 0.388644 4.194684 -6.974926 0.388642 0.000001 -0.000001 0.000001 4.194689 -6.974980 0.388658 4.194686 -6.974926 0.388645 -0.000003 0.000001 0.000001 0.000001 -0.000001 0.000001 2.760276 -0.547893 -3.344336 -27.854194 9.898202 -27.279955 51.514380 3.115318 17.933606 -15.929272 -7.467015 0.985759 0.527119 -6.696442 7.834183 2.373385 19.986115 -2.038326 0.000005 -0.000002 0.000002 10.153726 -1.387411 -1.422228 -0.006225 0.241371 -9.803552 -0.000002 0.000000 0.000001 9.151816 4.724920 -15.358934 0.048171 0.567328 -10.114802 0.000002 -0.000001 0.000000 10.792670 16.881053 -34.884604 0.127724 0.242446 -28.266106 0.000000 0.000001 -0.000002 11.932724 25.749489 -37.966713 0.132597 0.214246 -32.522103 -0.000000 -0.000001 -0.000002 0.000001 0.000001 -0.000001 0.000001 0.000001 -0.000001 0.000000 0.000001 -0.000001 -0.000001 -0.000001 0.000000 -0.000002 0.000000 0.000002 -0.000001 -0.000001 0.000000 -0.000002 -0.000001 -0.000000 -3.150917 9.830083 -18.703800 -24.875213 -7.756479 2.628345 144.587318 165.957464 -169.821807 -10.795648 -5.821820 -7.801438 10.147174 0.218079 2.483472 1.377799 -17.419902 3.021641 0.000004 0.000001 -0.000000 9.294118 -0.101605 -23.043793 -0.044941 -0.247244 1.135079 0.000001 0.000002 -0.000001 7.644652 -7.010151 -5.719500 0.105629 -0.531407 5.013990 -0.000008 0.000000 0.000000 6.566131 -17.505208 8.934420 0.187947 -0.184198 17.963225 -0.000001 0.000001 0.000002 7.824113 -27.677468 41.312488 0.351836 -0.175966 49.270171 -0.000002 0.000003 0.000002 0.000001 0.000001 0.000000 0.000001 0.000000 0.000000 0.000001 0.000001 0.000000 -0.000000 0.000000 -0.000000 -0.000000 0.000000 -0.000000 -0.000000 0.000000 -0.000000 -0.000000 -0.000000 -0.000000 -0.000001 -0.000001 -0.000001 -0.000001 -0.000001 -0.000001 -0.000001 -0.000001 -0.000001 -0.000001 -0.000001 -0.000001 -0.000001 -0.000001 -0.000001 -0.000001 -0.000001 -0.000001 -0.000001 -0.000001 -0.000001 0.000000 -0.000000 -0.000000 -0.000001 0.000001 -0.000000 
